PathFileType	4	(X/Y/Z)	7_coords_data.trc
DataRate	CameraRate	NumFrames	NumMarkers	Units	OrigDataRate	OrigDataStartFrame	OrigNumFrames
30.0	30.0	6	21	m	30.0	43	53
Frame#	Time	THUMB_TIP	THUMB_IP	THUMB_MCP	THUMB_CMC	INDEX_TIP	INDEX_DIP	INDEX_PIP	INDEX_MCP	MIDDLE_TIP	MIDDLE_DIP	MIDDLE_PIP	MIDDLE_MCP	RING_TIP	RING_DIP	RING_PIP	RING_MCP	PINKY_TIP	PINKY_DIP	PINKY_PIP	PINKY_MCP	WRIST
X1	Y1	Z1	X2	Y2	Z2	X3	Y3	Z3	X4	Y4	Z4	X5	Y5	Z5	X6	Y6	Z6	X7	Y7	Z7	X8	Y8	Z8	X9	Y9	Z9	X10	Y10	Z10	X11	Y11	Z11	X12	Y12	Z12	X13	Y13	Z13	X14	Y14	Z14	X15	Y15	Z15	X16	Y16	Z16	X17	Y17	Z17	X18	Y18	Z18	X19	Y19	Z19	X20	Y20	Z20	X21	Y21	Z21
41	1.3999999999999937	0.5048952821700972	-0.04206692654117461	-0.16566921846048743	0.49781142145867685	-0.04080741463160509	-0.143846465490918	0.47941671180554524	-0.04198372880870904	-0.11876517880674387	0.47548812736027635	-0.03350037682274565	-0.07514764834777998	0.5492054743135655	0.04635786091128735	-0.17461557085861978	0.5342609985527045	0.04218501316176737	-0.16527480076764978	0.5160671366630167	0.03273683277225137	-0.1507240238170488	0.4999171320065883	0.0055686708213859015	-0.12218099630052759	0.5589737359828895	0.08375318700570478	-0.14521182817782496	0.5469103249075391	0.07266822222107205	-0.1374918755257316	0.5279529380645226	0.054301096914684543	-0.12513567295116645	0.5062538388400104	0.02105400454869477	-0.10464353145614191	0.5805759968602897	0.06613602496441351	-0.11561958529135974	0.5646267987816067	0.061165653913583196	-0.1088432668023861	0.5432121858758931	0.05226971745762565	-0.09976270252091046	0.5153449238070205	0.02650027342096517	-0.08583171932422962	0.5894180525963759	0.04556592306683427	-0.06803810749442218	0.5726622877753218	0.042486257720263265	-0.0663767807310629	0.5523812066296645	0.03719792252554455	-0.06514256947217667	0.5199337255189153	0.021464316019594976	-0.06443684510422576	0.4622830810018609	-0.023011742144276925	-0.051989820119430985
42	1.4333333333333271	0.5069510070417121	-0.04212353653898426	-0.16476013712011628	0.4988668648541825	-0.040812854926419284	-0.1432908856473173	0.4800659933539824	-0.042317479672388636	-0.11853036595958089	0.475737215307279	-0.03344779887260141	-0.07502771726858426	0.5477132676888179	0.04760889030284965	-0.17461613137480408	0.5327008579562669	0.04326844034987509	-0.1654625502052438	0.5145103170776169	0.03359214809538036	-0.15105826529596178	0.49896476092185105	0.006143177514396747	-0.12244837553993115	0.5572252318910516	0.08498237282619592	-0.1454601262537919	0.545121079683301	0.07388754135020781	-0.1378185155694509	0.5261847402350229	0.05543915659209653	-0.1255514173748381	0.5048206226428268	0.02200063707137445	-0.10501881372188882	0.5796976306110956	0.06587542707575667	-0.11569210344521508	0.5634473846398194	0.061706957618459124	-0.10909260586914149	0.5416451544163848	0.053602296049854226	-0.10019557281633473	0.5136220225843338	0.02802879962690219	-0.08621625963475266	0.5887549084978463	0.04447909918870496	-0.06825568273297666	0.5718506757208566	0.042333606494731946	-0.06662971369223247	0.5513438784634125	0.037993374231558685	-0.06542735386930565	0.5184212812048901	0.02327953112295733	-0.064728167393032	0.4622830810018609	-0.023011742144276925	-0.051989820119430985
43	1.4666666666666603	0.5087389404990741	-0.04205164302867981	-0.16391293345730146	0.49984032958170194	-0.040766703347093536	-0.14276668902109224	0.48072235970687754	-0.04263527244227083	-0.11827522770491394	0.4759846978274892	-0.03344827269094852	-0.07488117747350787	0.5471658460431288	0.04815126916914625	-0.1743384456088345	0.5320124003715443	0.0437455792911271	-0.16545233391827746	0.513674787412648	0.03398565061095338	-0.15129304099357083	0.49827310532657604	0.006471220889479823	-0.12266821889767532	0.5562702162321895	0.08559099639537782	-0.14557163951948915	0.5440562368456217	0.07455034375776504	-0.1380269263453474	0.525015140905402	0.05612849115879226	-0.1258827276390896	0.5037020133329992	0.022668286976045837	-0.10533246608037905	0.5791153629343253	0.06538007601103579	-0.11555374346618341	0.5626197340623396	0.06191918360781945	-0.10915714656696651	0.5404766562024288	0.05452486839352222	-0.10048603450440263	0.5122169697959753	0.029211186849413262	-0.08651003776383492	0.5881514454047256	0.0432906362238179	-0.06820748192775061	0.5711572026788988	0.041954849629073476	-0.0666546173654079	0.5504847023978521	0.0384618620060706	-0.06553265988150925	0.5171294628280414	0.024753153432029995	-0.06491398915118385	0.4622830810018609	-0.023011742144276925	-0.051989820119430985
45	1.5000000000000004	0.5102823923952919	-0.042139377487653173	-0.16311850552996565	0.500727798098676	-0.040905804113484656	-0.142257344858574	0.4813694638974071	-0.04306141471477998	-0.1179792016040424	0.47622153325787175	-0.03350410291192485	-0.07471204776613027	0.5470437162608457	0.048216432960981326	-0.17405834582022595	0.5317406875681956	0.04376967443154567	-0.1654534837404006	0.5132237513988747	0.03397203469560406	-0.15155603204931728	0.49778499910918256	0.006514359625597432	-0.12289670369906702	0.5556348294724966	0.08582670685577976	-0.14576437552070198	0.5433137818653744	0.07484095382205525	-0.13831420665382094	0.5241521185840257	0.05646877189347188	-0.12628494476976304	0.50280492698518	0.023063893181772932	-0.10568010528728078	0.5783846096947923	0.06538099203726222	-0.11548164450979048	0.5617355124170484	0.06232219839097053	-0.10928072995904636	0.5393870905704377	0.05531454268826996	-0.10081782374910031	0.5110536776232015	0.030086249181031754	-0.08683670249671016	0.5874427203935931	0.0428144528381037	-0.06782283843064218	0.5704031179628224	0.04197103389365564	-0.06642978657036713	0.5496429918419324	0.03898489155438922	-0.06547472826095135	0.5160165153832849	0.025945671144413263	-0.06512506688748199	0.4622830810018609	-0.023011742144276925	-0.051989820119430985
46	1.5333333333333339	0.5116855353846193	-0.04216463082791855	-0.16236872802868657	0.5015673205395356	-0.04101081267860873	-0.14177041664092832	0.481987867121105	-0.04343929131899582	-0.11769620854743756	0.4764333580914767	-0.033571976811270776	-0.07454909353559214	0.5476125817637003	0.04775047492851514	-0.17356564054555323	0.5320989794726689	0.04338174080202428	-0.16530475039450182	0.5132799996965605	0.0336910847906674	-0.15174204346498438	0.49745459222940497	0.006448224856564377	-0.12308861164418261	0.555636042471563	0.08561137978110189	-0.1458171446474304	0.5431379430661074	0.07475152821530728	-0.13847813005279552	0.5237336443100729	0.05653890877473422	-0.12659607497383651	0.5021227565383406	0.023314715685528897	-0.10597398865142982	0.577946381191905	0.06521286592467312	-0.11529158120301297	0.5611683491624277	0.06248280475133883	-0.10928788174287296	0.5386380975592318	0.05580557702741529	-0.10104273943848818	0.5101483549515085	0.03073192873112951	-0.08710116272493662	0.5869049625730463	0.042208564965805384	-0.0673285117542951	0.5698371174164171	0.041769455445424875	-0.06610546451953991	0.5490114069904763	0.039220230907145215	-0.06532876734026205	0.5151254686020821	0.026866128095982544	-0.06527609600862716	0.4622830810018609	-0.023011742144276925	-0.051989820119430985
47	1.5666666666666673	0.5129850825550216	-0.04212403560070177	-0.16165976829879164	0.5023801373571093	-0.041065826238546044	-0.14130257472268404	0.48257611022194474	-0.04374237917134993	-0.11743928547690796	0.47661588726425586	-0.033642480977672196	-0.07440025901519554	0.5489550392999968	0.04669651645389705	-0.17278828133385893	0.5331627829048813	0.04255199991515246	-0.16495070386304517	0.5139016047636755	0.03314502911099726	-0.15181579808102647	0.49728450809998	0.006302849063261506	-0.1232324889172095	0.5563418123097102	0.08491766917809418	-0.1456787169966507	0.5435870997280491	0.07426956960668119	-0.13847210319566983	0.523802967117631	0.05634605509843105	-0.1267782896805696	0.501674059298489	0.023440487938773957	-0.10619472804432173	0.5778981819581455	0.06477955558465187	-0.11495320357727223	0.5610083054741628	0.06232774492011761	-0.1091462511217165	0.5383077815361054	0.055955796961129955	-0.10112973871633468	0.5095369751775248	0.03115059049238411	-0.08728548837476868	0.5866131364877679	0.041349726471895276	-0.0667676282262627	0.5695288606801213	0.04125066224773155	-0.0657104118776618	0.548652555480859	0.03909898172572157	-0.06510860529871976	0.514502213641139	0.027498194683345467	-0.06535220995325564	0.4622830810018609	-0.023011742144276925	-0.051989820119430985
